<svg width="160" height="160" viewBox="0 0 160 160" fill="none" xmlns="http://www.w3.org/2000/svg">
    <path fill-rule="evenodd" clip-rule="evenodd"
          d="M44.8652 68.5305C47.4157 31.7839 61.6391 5.33325 79.9907 5.33325C88.9292 5.33325 96.9069 11.631 103.046 22.3488C99.0367 23.1924 95.0702 24.2181 91.1594 25.4225C87.6421 20.0088 83.7452 16.8888 79.9907 16.8888C71.9537 16.8888 63.288 30.9865 59.0293 52.37C59.3516 52.1712 59.669 51.9708 59.9852 51.7712C60.7163 51.3096 61.4407 50.8522 62.2026 50.4287C79.3264 40.7914 97.1204 34.4243 112.34 32.5061C129.322 30.3625 141.534 34.0661 146.772 42.8887C151.167 50.2843 149.803 60.066 143.124 70.83C140.514 67.9642 137.566 65.1216 134.464 62.3194C137.495 56.6109 138.308 51.7345 136.499 48.6665C134.488 45.2807 129.043 43.4781 121.35 43.4781C118.839 43.4876 116.331 43.6536 113.841 43.9749C100.145 45.7083 83.9054 51.5554 68.128 60.43C64.3018 62.6653 60.5606 65.0358 56.9118 67.5367C56.5915 71.1247 56.3602 74.782 56.3127 78.6184C52.0244 75.3193 48.1571 71.9393 44.8652 68.5305ZM13.2155 42.8887C17.5929 35.5105 26.9051 31.7608 39.7702 31.9861C38.5187 35.6434 37.451 39.5261 36.5257 43.611C30.0131 43.9287 25.2858 45.6447 23.5064 48.6665C20.8848 53.0692 23.5479 61.0771 30.6418 70.1251C39.005 80.8082 52.3269 91.5722 68.128 100.458C71.9728 102.631 75.9151 104.636 79.9432 106.467C83.3716 104.884 86.8236 103.191 90.2519 101.325C89.3741 106.964 88.2175 111.858 86.9185 116.058C80.9634 118.878 75.0083 121.293 69.1956 123.234L65.2809 124.413C61.2951 125.626 57.8193 126.533 54.6638 127.186C54.6508 127.19 54.6382 127.193 54.6259 127.196C54.5537 127.216 54.4907 127.233 54.4147 127.233L53.1157 127.504C51.2652 127.862 49.4561 128.151 47.647 128.382C44.5153 128.787 41.5081 128.989 38.7026 128.989C26.3772 128.989 17.4802 125.199 13.2155 118C8.81447 110.593 10.1787 100.828 16.8337 90.0815C19.6009 93.0335 22.5002 95.8654 25.5231 98.5691C22.4862 104.277 21.6736 109.154 23.5064 112.222C26.0984 116.625 34.5506 118.381 46.1167 116.919C52.1667 116.151 58.7446 114.504 65.536 112.222C65.0216 111.942 64.5034 111.676 63.9872 111.41C63.3845 111.101 62.7845 110.792 62.1966 110.465C45.0728 100.822 30.5232 88.9953 21.211 77.1278C20.1908 75.8393 19.3782 74.6664 18.6368 73.5629C10.4337 61.7127 8.44673 50.9198 13.2155 42.8887ZM93.4074 61.3256C98.4787 59.3669 103.437 57.8069 108.117 56.7438C120.721 65.0291 131.404 74.3718 138.77 83.7606C149.174 97.0091 152.003 109.177 146.766 118C142.501 125.199 133.604 128.989 121.279 128.989C121.116 128.989 120.936 128.973 120.757 128.957C120.577 128.941 120.398 128.925 120.235 128.925C121.512 125.122 122.587 121.258 123.456 117.347C130.016 117.029 134.672 115.267 136.499 112.222C139.091 107.819 136.433 99.8113 129.363 90.7575C125.662 86.066 120.887 81.3455 115.46 76.7638C115.47 77.2983 115.494 77.8243 115.517 78.349C115.548 79.0438 115.579 79.7365 115.579 80.4442C115.579 120.819 101.978 151.788 83.419 155.214C82.3039 155.44 81.177 155.555 79.9907 155.555C71.0521 155.555 63.0745 149.257 56.9355 138.54C60.8087 137.748 64.7886 136.685 68.8219 135.449C72.3392 140.909 76.2361 144 79.9907 144C80.6609 144 81.4023 143.89 82.126 143.659C92.7134 140.521 103.716 114.521 103.716 80.4442C103.716 75.9087 103.437 71.6216 103.07 67.4211C99.9616 65.3469 96.7645 63.2669 93.4074 61.3256ZM90.0074 74.6664L79.9999 68.8887L69.9925 74.6664V86.222L79.9999 91.9997L90.0074 86.222V74.6664Z"
          />
</svg>
