<svg width="17" height="20" viewBox="0 0 17 20" fill="none" xmlns="http://www.w3.org/2000/svg">
<g id="Profile">
<g id="Group 6">
<g id="Union">
<path fill-rule="evenodd" clip-rule="evenodd" d="M8.26402 10.6188H8.29602C11.224 10.6188 13.605 8.23776 13.605 5.30976C13.605 2.38176 11.224 -0.000244141 8.29602 -0.000244141C5.36702 -0.000244141 2.98502 2.38176 2.98502 5.30676C2.97502 8.22676 5.34202 10.6098 8.26402 10.6188ZM4.41302 5.30976C4.41302 3.16876 6.15502 1.42776 8.29602 1.42776C10.436 1.42776 12.177 3.16876 12.177 5.30976C12.177 7.44976 10.436 9.19176 8.29602 9.19176H8.26702C6.13502 9.18376 4.40602 7.44376 4.41302 5.30976Z" fill="#9E9E9E"/>
<path fill-rule="evenodd" clip-rule="evenodd" d="M0.375 16.1731C0.375 19.8701 6.337 19.8701 8.296 19.8701C11.695 19.8701 16.215 19.4891 16.215 16.1931C16.215 12.4961 10.255 12.4961 8.296 12.4961C4.896 12.4961 0.375 12.8771 0.375 16.1731ZM1.875 16.1731C1.875 14.7281 4.035 13.9961 8.296 13.9961C12.556 13.9961 14.715 14.7351 14.715 16.1931C14.715 17.6381 12.556 18.3701 8.296 18.3701C4.035 18.3701 1.875 17.6311 1.875 16.1731Z" fill="#9E9E9E"/>
</g>
</g>
</g>
</svg>
