<svg width="21" height="20" viewBox="0 0 21 20" fill="none" xmlns="http://www.w3.org/2000/svg">
<g id="Category">
<path id="Fill 7" fill-rule="evenodd" clip-rule="evenodd" d="M16.125 12.5C13.375 12.5 13.375 12.708 13.375 15.25V15.275C13.375 16.382 13.375 17.182 13.646 17.52C13.911 17.848 14.698 18 16.125 18C17.552 18 18.339 17.847 18.604 17.519C18.875 17.182 18.875 16.382 18.875 15.274C18.875 12.708 18.875 12.5 16.125 12.5ZM16.125 19.5C14.439 19.5 13.174 19.323 12.479 18.46C11.875 17.711 11.875 16.689 11.875 15.275L12.625 15.25H11.875C11.875 12.38 12.056 11 16.125 11C20.194 11 20.375 12.38 20.375 15.25C20.375 16.688 20.375 17.711 19.771 18.46C19.076 19.323 17.811 19.5 16.125 19.5Z" fill="#9E9E9E"/>
<path id="Fill 5" fill-rule="evenodd" clip-rule="evenodd" d="M5.125 12.5C2.375 12.5 2.375 12.708 2.375 15.25V15.275C2.375 16.382 2.375 17.182 2.646 17.52C2.911 17.848 3.698 18 5.125 18C6.552 18 7.339 17.847 7.604 17.519C7.875 17.182 7.875 16.382 7.875 15.274C7.875 12.708 7.875 12.5 5.125 12.5ZM5.125 19.5C3.439 19.5 2.174 19.323 1.479 18.46C0.875 17.711 0.875 16.689 0.875 15.275L1.625 15.25H0.875C0.875 12.38 1.056 11 5.125 11C9.194 11 9.375 12.38 9.375 15.25C9.375 16.688 9.375 17.711 8.771 18.46C8.076 19.323 6.811 19.5 5.125 19.5Z" fill="#9E9E9E"/>
<path id="Fill 3" fill-rule="evenodd" clip-rule="evenodd" d="M16.125 1.5C13.375 1.5 13.375 1.708 13.375 4.25V4.275C13.375 5.382 13.375 6.182 13.646 6.52C13.911 6.848 14.698 7 16.125 7C17.552 7 18.339 6.847 18.604 6.519C18.875 6.182 18.875 5.382 18.875 4.274C18.875 1.708 18.875 1.5 16.125 1.5ZM16.125 8.5C14.439 8.5 13.174 8.323 12.479 7.46C11.875 6.711 11.875 5.689 11.875 4.275L12.625 4.25H11.875C11.875 1.38 12.056 0 16.125 0C20.194 0 20.375 1.38 20.375 4.25C20.375 5.688 20.375 6.711 19.771 7.46C19.076 8.323 17.811 8.5 16.125 8.5Z" fill="#9E9E9E"/>
<path id="Fill 1" fill-rule="evenodd" clip-rule="evenodd" d="M5.125 1.5C2.375 1.5 2.375 1.708 2.375 4.25V4.275C2.375 5.382 2.375 6.182 2.646 6.52C2.911 6.848 3.698 7 5.125 7C6.552 7 7.339 6.847 7.604 6.519C7.875 6.182 7.875 5.382 7.875 4.274C7.875 1.708 7.875 1.5 5.125 1.5ZM5.125 8.5C3.439 8.5 2.174 8.323 1.479 7.46C0.875 6.711 0.875 5.689 0.875 4.275L1.625 4.25H0.875C0.875 1.38 1.056 0 5.125 0C9.194 0 9.375 1.38 9.375 4.25C9.375 5.688 9.375 6.711 8.771 7.46C8.076 8.323 6.811 8.5 5.125 8.5Z" fill="#9E9E9E"/>
</g>
</svg>
