<svg width="20" height="17" viewBox="0 0 20 17" fill="none" xmlns="http://www.w3.org/2000/svg">
    <g id="Group">
        <path id="Vector"
              d="M19.3333 8.32007C19.3333 8.76305 19.0041 9.12914 18.577 9.18708L18.4583 9.19507L0.95825 9.19507C0.475002 9.19507 0.08325 8.80332 0.08325 8.32007C0.08325 7.87709 0.41243 7.511 0.83952 7.45306L0.95825 7.44507L18.4583 7.44507C18.9415 7.44507 19.3333 7.83682 19.3333 8.32007Z"/>
        <path id="Vector_2"
              d="M8.63386 14.7284C8.97631 15.0694 8.9775 15.6234 8.63653 15.9658C8.32655 16.2771 7.84051 16.3064 7.49742 16.053L7.39909 15.9685L0.340761 8.94048C0.0285177 8.62958 0.000113487 8.14178 0.25556 7.79869L0.34071 7.70043L7.39904 0.671262C7.74146 0.330261 8.29548 0.331408 8.63648 0.673824C8.94648 0.985111 8.97371 1.47128 8.71884 1.8133L8.63392 1.91126L2.19855 8.32078L8.63386 14.7284Z"/>
    </g>
</svg>
