<svg width="25" height="24" viewBox="0 0 25 24" fill="none" xmlns="http://www.w3.org/2000/svg">
<mask id="mask0_2531_23187" style="mask-type:luminance" maskUnits="userSpaceOnUse" x="1" y="1" width="23" height="22">
<path fill-rule="evenodd" clip-rule="evenodd" d="M1.625 1.00031H23.118V22.4941H1.625V1.00031Z" fill="white"/>
</mask>
<g mask="url(#mask0_2531_23187)">
<path fill-rule="evenodd" clip-rule="evenodd" d="M6.73344 19.6753C7.31344 19.6753 7.86044 19.8953 8.43944 20.1283C11.9864 21.7683 16.1814 21.0223 18.9144 18.2903C22.5204 14.6823 22.5204 8.8133 18.9144 5.2073C17.1684 3.46131 14.8464 2.50031 12.3744 2.50031C9.90144 2.50031 7.57844 3.46231 5.83344 5.20831C3.09944 7.94031 2.35544 12.1353 3.98044 15.6483C4.21444 16.2273 4.44044 16.7913 4.44044 17.3773C4.44044 17.9623 4.23944 18.5513 4.06244 19.0713C3.91644 19.4993 3.69544 20.1453 3.83744 20.2873C3.97644 20.4313 4.62644 20.2043 5.05544 20.0573C5.57044 19.8813 6.15444 19.6793 6.73344 19.6753ZM12.3494 22.4943C10.8214 22.4943 9.28344 22.1713 7.84444 21.5053C7.42044 21.3353 7.02344 21.1753 6.73844 21.1753C6.41044 21.1773 5.96944 21.3293 5.54344 21.4763C4.66944 21.7763 3.58144 22.1503 2.77644 21.3483C1.97444 20.5453 2.34444 19.4603 2.64244 18.5873C2.78944 18.1573 2.94044 17.7133 2.94044 17.3773C2.94044 17.1013 2.80744 16.7493 2.60344 16.2423C0.730437 12.1973 1.59644 7.32231 4.77344 4.14731C6.80144 2.11831 9.50044 1.00031 12.3734 1.00031C15.2464 1.00031 17.9464 2.11731 19.9744 4.14631C24.1664 8.3383 24.1664 15.1583 19.9744 19.3503C17.9194 21.4063 15.1524 22.4943 12.3494 22.4943Z" fill="#9E9E9E"/>
</g>
<path fill-rule="evenodd" clip-rule="evenodd" d="M16.3214 13.163C15.7694 13.163 15.3174 12.716 15.3174 12.163C15.3174 11.61 15.7604 11.163 16.3124 11.163H16.3214C16.8734 11.163 17.3214 11.61 17.3214 12.163C17.3214 12.716 16.8734 13.163 16.3214 13.163Z" fill="#9E9E9E"/>
<path fill-rule="evenodd" clip-rule="evenodd" d="M12.3126 13.163C11.7606 13.163 11.3086 12.716 11.3086 12.163C11.3086 11.61 11.7506 11.163 12.3036 11.163H12.3126C12.8646 11.163 13.3126 11.61 13.3126 12.163C13.3126 12.716 12.8646 13.163 12.3126 13.163Z" fill="#9E9E9E"/>
<path fill-rule="evenodd" clip-rule="evenodd" d="M8.30332 13.163C7.75132 13.163 7.29932 12.716 7.29932 12.163C7.29932 11.61 7.74232 11.163 8.29432 11.163H8.30332C8.85532 11.163 9.30332 11.61 9.30332 12.163C9.30332 12.716 8.85532 13.163 8.30332 13.163Z" fill="#9E9E9E"/>
</svg>
