<svg width="21" height="20" viewBox="0 0 21 20" fill="none" xmlns="http://www.w3.org/2000/svg">
<g id="Group">
<path id="Exclude" fill-rule="evenodd" clip-rule="evenodd" d="M0.625 10.015C0.625 4.74712 4.835 0 10.645 0C16.325 0 20.625 4.65699 20.625 9.98498C20.625 16.1642 15.585 20 10.625 20C8.985 20 7.165 19.5593 5.705 18.698C5.195 18.3876 4.765 18.1572 4.215 18.3375L2.195 18.9384C1.685 19.0986 1.225 18.698 1.375 18.1572L2.045 15.9139C2.155 15.6034 2.135 15.2729 1.975 15.0125C1.115 13.4301 0.625 11.6975 0.625 10.015ZM9.325 10.015C9.325 10.7261 9.895 11.2969 10.605 11.307C11.315 11.307 11.885 10.7261 11.885 10.025C11.885 9.31397 11.315 8.74311 10.605 8.74311C9.905 8.7331 9.325 9.31397 9.325 10.015ZM13.935 10.025C13.935 10.7261 14.505 11.307 15.215 11.307C15.925 11.307 16.495 10.7261 16.495 10.025C16.495 9.31397 15.925 8.74311 15.215 8.74311C14.505 8.74311 13.935 9.31397 13.935 10.025ZM5.995 11.307C5.295 11.307 4.715 10.7261 4.715 10.025C4.715 9.31397 5.285 8.74311 5.995 8.74311C6.705 8.74311 7.275 9.31397 7.275 10.025C7.275 10.7261 6.705 11.2969 5.995 11.307Z" fill="#17CE92"/>
</g>
</svg>
