<svg width="20" height="17" viewBox="0 0 20 17" fill="none" xmlns="http://www.w3.org/2000/svg">
<path fill-rule="evenodd" clip-rule="evenodd" d="M9.99962 6.14062C8.66962 6.14062 7.58862 7.22262 7.58862 8.55262C7.58862 9.88163 8.66962 10.9626 9.99962 10.9626C11.3296 10.9626 12.4116 9.88163 12.4116 8.55262C12.4116 7.22262 11.3296 6.14062 9.99962 6.14062ZM9.99962 12.4626C7.84262 12.4626 6.08862 10.7086 6.08862 8.55262C6.08862 6.39562 7.84262 4.64062 9.99962 4.64062C12.1566 4.64062 13.9116 6.39562 13.9116 8.55262C13.9116 10.7086 12.1566 12.4626 9.99962 12.4626Z" fill="#212121"/>
<mask id="mask0_2887_11965" style="mask-type:luminance" maskUnits="userSpaceOnUse" x="0" y="0" width="20" height="17">
<path fill-rule="evenodd" clip-rule="evenodd" d="M0.00012207 0.5H20V16.605H0.00012207V0.5Z" fill="white"/>
</mask>
<g mask="url(#mask0_2887_11965)">
<path fill-rule="evenodd" clip-rule="evenodd" d="M1.56987 8.55275C3.42987 12.6617 6.56287 15.1047 9.99987 15.1057C13.4369 15.1047 16.5699 12.6617 18.4299 8.55275C16.5699 4.44475 13.4369 2.00175 9.99987 2.00075C6.56387 2.00175 3.42987 4.44475 1.56987 8.55275ZM10.0019 16.6057H9.99787H9.99687C5.86087 16.6027 2.14687 13.7038 0.0608721 8.84875C-0.0201279 8.65975 -0.0201279 8.44575 0.0608721 8.25675C2.14687 3.40275 5.86187 0.50375 9.99687 0.50075C9.99887 0.49975 9.99887 0.49975 9.99987 0.50075C10.0019 0.49975 10.0019 0.49975 10.0029 0.50075C14.1389 0.50375 17.8529 3.40275 19.9389 8.25675C20.0209 8.44575 20.0209 8.65975 19.9389 8.84875C17.8539 13.7038 14.1389 16.6027 10.0029 16.6057H10.0019Z" fill="#212121"/>
</g>
</svg>
