<svg width="18" height="15" viewBox="0 0 18 15" fill="none" xmlns="http://www.w3.org/2000/svg">
    <g id="Hide">
        <path id="Hide_2" fill-rule="evenodd" clip-rule="evenodd"
              d="M7.16923 10.2105C7.68962 10.5633 8.32385 10.7766 8.99874 10.7766C10.7876 10.7766 12.2431 9.30803 12.2431 7.5031C12.2431 6.82215 12.0317 6.18221 11.682 5.65714L10.7957 6.55141C10.9421 6.83035 11.0234 7.15852 11.0234 7.5031C11.0234 8.62708 10.1127 9.54595 8.99874 9.54595C8.65723 9.54595 8.33198 9.46391 8.05553 9.31623L7.16923 10.2105ZM14.3572 2.95795C15.5362 4.04091 16.5363 5.50126 17.2844 7.25697C17.3494 7.41285 17.3494 7.59334 17.2844 7.74102C15.5443 11.8267 12.4463 14.2716 8.99874 14.2716H8.99061C7.4213 14.2716 5.91703 13.7547 4.59166 12.8112L3.01421 14.4029C2.89224 14.5259 2.73775 14.5834 2.58326 14.5834C2.42877 14.5834 2.26615 14.5259 2.15231 14.4029C1.94903 14.1978 1.91651 13.8696 2.07913 13.6317L2.10352 13.5988L14.1295 1.46478C14.1458 1.44837 14.162 1.43196 14.1702 1.41555L14.1702 1.41555C14.1864 1.39914 14.2027 1.38273 14.2108 1.36633L14.9751 0.595129C15.2191 0.357206 15.6012 0.357206 15.837 0.595129C16.081 0.833052 16.081 1.22686 15.837 1.46478L14.3572 2.95795ZM5.74847 7.5063C5.74847 7.71961 5.77287 7.93292 5.80539 8.12982L2.79687 11.1654C1.98375 10.2137 1.27634 9.0651 0.715291 7.74422C0.650242 7.59654 0.650242 7.41605 0.715291 7.26017C2.45536 3.17446 5.55333 0.737801 8.9928 0.737801H9.00093C10.1637 0.737801 11.2939 1.01674 12.3347 1.54182L9.6189 4.28203C9.42375 4.24921 9.21234 4.2246 9.00093 4.2246C7.20395 4.2246 5.74847 5.69316 5.74847 7.5063Z"
        />
    </g>
</svg>
