<svg width="21" height="20" viewBox="0 0 21 20" fill="none" xmlns="http://www.w3.org/2000/svg">
<g id="Time Circle">
<path id="Time Circle_2" fill-rule="evenodd" clip-rule="evenodd" d="M10.125 20.0001C4.605 20.0001 0.125 15.5301 0.125 10.0001C0.125 4.48012 4.605 0.00012207 10.125 0.00012207C15.655 0.00012207 20.125 4.48012 20.125 10.0001C20.125 15.5301 15.655 20.0001 10.125 20.0001ZM13.315 13.7101C13.435 13.7801 13.565 13.8201 13.705 13.8201C13.955 13.8201 14.205 13.6901 14.345 13.4501C14.555 13.1001 14.445 12.6401 14.085 12.4201L10.525 10.3001V5.68012C10.525 5.26012 10.185 4.93012 9.775 4.93012C9.365 4.93012 9.025 5.26012 9.025 5.68012V10.7301C9.025 10.9901 9.165 11.2301 9.395 11.3701L13.315 13.7101Z" fill="#17CE92"/>
</g>
</svg>
