<svg width="21" height="20" viewBox="0 0 21 20" fill="none" xmlns="http://www.w3.org/2000/svg">
<g id="Time Circle">
<path id="Fill 1" fill-rule="evenodd" clip-rule="evenodd" d="M10.125 1.5C5.438 1.5 1.625 5.313 1.625 10C1.625 14.687 5.438 18.5 10.125 18.5C14.812 18.5 18.625 14.687 18.625 10C18.625 5.313 14.812 1.5 10.125 1.5ZM10.125 20C4.611 20 0.125 15.514 0.125 10C0.125 4.486 4.611 0 10.125 0C15.639 0 20.125 4.486 20.125 10C20.125 15.514 15.639 20 10.125 20Z" fill="#9E9E9E"/>
<path id="Fill 3" fill-rule="evenodd" clip-rule="evenodd" d="M13.5561 13.6924C13.4251 13.6924 13.2931 13.6584 13.1721 13.5874L9.40213 11.3384C9.17613 11.2024 9.03613 10.9574 9.03613 10.6934V5.8454C9.03613 5.4314 9.37213 5.0954 9.78613 5.0954C10.2011 5.0954 10.5361 5.4314 10.5361 5.8454V10.2674L13.9411 12.2974C14.2961 12.5104 14.4131 12.9704 14.2011 13.3264C14.0601 13.5614 13.8111 13.6924 13.5561 13.6924Z" fill="#9E9E9E"/>
</g>
</svg>
