<svg width="21" height="21" viewBox="0 0 21 21" fill="none" xmlns="http://www.w3.org/2000/svg">
<path fill-rule="evenodd" clip-rule="evenodd" d="M9.31924 20.5H4.43324C1.98924 20.5 0.000244141 18.511 0.000244141 16.065V4.936C0.000244141 2.49 1.98924 0.5 4.43324 0.5H9.30824C11.7542 0.5 13.7442 2.49 13.7442 4.936V5.868C13.7442 6.282 13.4082 6.618 12.9942 6.618C12.5802 6.618 12.2442 6.282 12.2442 5.868V4.936C12.2442 3.316 10.9272 2 9.30824 2H4.43324C2.81624 2 1.50024 3.316 1.50024 4.936V16.065C1.50024 17.684 2.81624 19 4.43324 19H9.31924C10.9312 19 12.2442 17.688 12.2442 16.076V15.133C12.2442 14.719 12.5802 14.383 12.9942 14.383C13.4082 14.383 13.7442 14.719 13.7442 15.133V16.076C13.7442 18.516 11.7582 20.5 9.31924 20.5Z" fill="#F75555"/>
<mask id="mask0_2887_16963" style="mask-type:luminance" maskUnits="userSpaceOnUse" x="6" y="9" width="15" height="3">
<path fill-rule="evenodd" clip-rule="evenodd" d="M6.99609 9.75H20.537V11.25H6.99609V9.75Z" fill="white"/>
</mask>
<g mask="url(#mask0_2887_16963)">
<path fill-rule="evenodd" clip-rule="evenodd" d="M19.7871 11.25H7.74609C7.33209 11.25 6.99609 10.914 6.99609 10.5C6.99609 10.086 7.33209 9.75 7.74609 9.75H19.7871C20.2011 9.75 20.5371 10.086 20.5371 10.5C20.5371 10.914 20.2011 11.25 19.7871 11.25Z" fill="#F75555"/>
</g>
<mask id="mask1_2887_16963" style="mask-type:luminance" maskUnits="userSpaceOnUse" x="16" y="6" width="5" height="9">
<path fill-rule="evenodd" clip-rule="evenodd" d="M16.1096 6.83496H20.537V14.1657H16.1096V6.83496Z" fill="white"/>
</mask>
<g mask="url(#mask1_2887_16963)">
<path fill-rule="evenodd" clip-rule="evenodd" d="M16.8594 14.1657C16.6674 14.1657 16.4744 14.0927 16.3284 13.9447C16.0364 13.6507 16.0374 13.1767 16.3304 12.8847L18.7244 10.4997L16.3304 8.11571C16.0374 7.82371 16.0354 7.34971 16.3284 7.05571C16.6204 6.76171 17.0944 6.76171 17.3884 7.05371L20.3164 9.96871C20.4584 10.1087 20.5374 10.3007 20.5374 10.4997C20.5374 10.6987 20.4584 10.8907 20.3164 11.0307L17.3884 13.9467C17.2424 14.0927 17.0504 14.1657 16.8594 14.1657Z" fill="#F75555"/>
</g>
</svg>
