<svg width="28" height="29" viewBox="0 0 28 29" fill="none" xmlns="http://www.w3.org/2000/svg">
<g id="Iconly/Curved/Bold/Send">
<path id="Vector" fill-rule="evenodd" clip-rule="evenodd" d="M25.0435 3.69824C24.9886 3.59557 24.9058 3.51157 24.8031 3.45674C22.3695 2.16174 7.81062 6.6744 4.04462 8.84674C3.06346 9.41257 2.62596 10.0776 2.74612 10.8196C3.09262 12.9686 8.88279 14.5972 12.0246 15.3264L17.9245 9.42774C18.2663 9.0859 18.8205 9.0859 19.1623 9.42774C19.5041 9.76957 19.5041 10.3237 19.1623 10.6656L13.2053 16.6202C13.9531 19.7947 15.5643 25.4122 17.6795 25.7529C17.7588 25.7657 17.8381 25.7727 17.9163 25.7727C18.5626 25.7727 19.146 25.3294 19.6511 24.4544C21.8235 20.6919 26.3396 6.1354 25.0435 3.69824Z" fill="white"/>
</g>
</svg>
