<svg width="24" height="24" viewBox="0 0 24 24" fill="none" xmlns="http://www.w3.org/2000/svg">
<g id="Icon=share-alt, Component=Additional Icons">
<path id="Vector" d="M18.0006 14.0001C17.4098 14.004 16.8272 14.1388 16.2946 14.3947C15.7621 14.6506 15.2929 15.0213 14.9206 15.4801L9.82064 13.1301C10.0604 12.3959 10.0604 11.6044 9.82064 10.8701L14.9206 8.52011C15.5223 9.24608 16.361 9.73619 17.2888 9.90395C18.2166 10.0717 19.1738 9.90634 19.9916 9.43702C20.8093 8.96769 21.435 8.22459 21.7582 7.33886C22.0814 6.45312 22.0813 5.4817 21.7579 4.59602C21.4346 3.71035 20.8088 2.96736 19.991 2.49818C19.1731 2.02901 18.2158 1.86381 17.2881 2.03174C16.3603 2.19967 15.5217 2.68993 14.9202 3.41601C14.3187 4.14208 13.993 5.05729 14.0006 6.00011C14.0036 6.23835 14.0271 6.47588 14.0706 6.71011L8.79064 9.14011C8.22772 8.58969 7.51488 8.21763 6.74144 8.07054C5.968 7.92345 5.16836 8.00788 4.44269 8.31325C3.71702 8.61861 3.0976 9.13133 2.66204 9.78718C2.22648 10.443 1.99414 11.2128 1.99414 12.0001C1.99414 12.7874 2.22648 13.5572 2.66204 14.2131C3.0976 14.8689 3.71702 15.3816 4.44269 15.687C5.16836 15.9923 5.968 16.0768 6.74144 15.9297C7.51488 15.7826 8.22772 15.4105 8.79064 14.8601L14.0706 17.2901C14.0271 17.5243 14.0036 17.7619 14.0006 18.0001C14.0006 18.7912 14.2352 19.5646 14.6748 20.2224C15.1143 20.8802 15.739 21.3929 16.4699 21.6956C17.2008 21.9984 18.0051 22.0776 18.781 21.9233C19.5569 21.7689 20.2697 21.388 20.8291 20.8285C21.3885 20.2691 21.7694 19.5564 21.9238 18.7805C22.0781 18.0046 21.9989 17.2003 21.6962 16.4694C21.3934 15.7385 20.8807 15.1138 20.2229 14.6742C19.5651 14.2347 18.7918 14.0001 18.0006 14.0001ZM18.0006 4.00011C18.3962 4.00011 18.7829 4.11741 19.1118 4.33718C19.4407 4.55694 19.697 4.8693 19.8484 5.23475C19.9998 5.6002 20.0394 6.00233 19.9622 6.3903C19.885 6.77826 19.6946 7.13462 19.4149 7.41433C19.1351 7.69403 18.7788 7.88451 18.3908 7.96169C18.0029 8.03886 17.6007 7.99925 17.2353 7.84787C16.8698 7.6965 16.5575 7.44015 16.3377 7.11125C16.1179 6.78236 16.0006 6.39568 16.0006 6.00011C16.0006 5.46968 16.2114 4.96097 16.5864 4.5859C16.9615 4.21083 17.4702 4.00011 18.0006 4.00011ZM6.00064 14.0001C5.60508 14.0001 5.2184 13.8828 4.8895 13.6631C4.5606 13.4433 4.30425 13.1309 4.15288 12.7655C4.0015 12.4 3.9619 11.9979 4.03907 11.6099C4.11624 11.222 4.30672 10.8656 4.58642 10.5859C4.86613 10.3062 5.2225 10.1157 5.61046 10.0385C5.99842 9.96137 6.40055 10.001 6.76601 10.1524C7.13146 10.3037 7.44381 10.5601 7.66358 10.889C7.88334 11.2179 8.00064 11.6046 8.00064 12.0001C8.00064 12.5305 7.78993 13.0393 7.41485 13.4143C7.03978 13.7894 6.53107 14.0001 6.00064 14.0001ZM18.0006 20.0001C17.6051 20.0001 17.2184 19.8828 16.8895 19.6631C16.5606 19.4433 16.3043 19.1309 16.1529 18.7655C16.0015 18.4 15.9619 17.9979 16.0391 17.6099C16.1162 17.222 16.3067 16.8656 16.5864 16.5859C16.8661 16.3062 17.2225 16.1157 17.6105 16.0385C17.9984 15.9614 18.4006 16.001 18.766 16.1524C19.1315 16.3037 19.4438 16.5601 19.6636 16.889C19.8833 17.2179 20.0006 17.6046 20.0006 18.0001C20.0006 18.5305 19.7899 19.0393 19.4149 19.4143C19.0398 19.7894 18.5311 20.0001 18.0006 20.0001Z" fill="#616161"/>
</g>
</svg>
